<svg xmlns="http://www.w3.org/2000/svg" viewBox="0 0 180 180">
  <defs>
    <clipPath id="rr">
      <rect width="180" height="180" rx="40" ry="40"/>
    </clipPath>
    <linearGradient id="gl" x1="0" y1="0" x2="0" y2="1">
      <stop offset="0" stop-color="#2fb8f0"/>
      <stop offset="1" stop-color="#1460b0"/>
    </linearGradient>
    <linearGradient id="gr" x1="0" y1="0" x2="0" y2="1">
      <stop offset="0" stop-color="#ffd84a"/>
      <stop offset="1" stop-color="#f08018"/>
    </linearGradient>
  </defs>
  <g clip-path="url(#rr)">
    <rect x="0" y="0" width="90" height="180" fill="url(#gl)"/>
    <rect x="90" y="0" width="90" height="180" fill="url(#gr)"/>
    <line x1="90" y1="0" x2="90" y2="180" stroke="rgba(255,255,255,0.45)" stroke-width="2"/>
    <!-- Snowflake at (45,90) -->
    <g transform="translate(45,90)" stroke="rgba(255,255,255,0.96)" stroke-linecap="round" fill="none">
      <g transform="rotate(0)">
        <line x1="0" y1="0" x2="0" y2="-35" stroke-width="3.5"/>
        <line x1="0" y1="-13.3" x2="-7.35" y2="-20.65" stroke-width="2.8"/>
        <line x1="0" y1="-13.3" x2="7.35" y2="-20.65" stroke-width="2.8"/>
        <line x1="0" y1="-23.8" x2="-5.95" y2="-29.75" stroke-width="2.8"/>
        <line x1="0" y1="-23.8" x2="5.95" y2="-29.75" stroke-width="2.8"/>
      </g>
      <g transform="rotate(60)">
        <line x1="0" y1="0" x2="0" y2="-35" stroke-width="3.5"/>
        <line x1="0" y1="-13.3" x2="-7.35" y2="-20.65" stroke-width="2.8"/>
        <line x1="0" y1="-13.3" x2="7.35" y2="-20.65" stroke-width="2.8"/>
        <line x1="0" y1="-23.8" x2="-5.95" y2="-29.75" stroke-width="2.8"/>
        <line x1="0" y1="-23.8" x2="5.95" y2="-29.75" stroke-width="2.8"/>
      </g>
      <g transform="rotate(120)">
        <line x1="0" y1="0" x2="0" y2="-35" stroke-width="3.5"/>
        <line x1="0" y1="-13.3" x2="-7.35" y2="-20.65" stroke-width="2.8"/>
        <line x1="0" y1="-13.3" x2="7.35" y2="-20.65" stroke-width="2.8"/>
        <line x1="0" y1="-23.8" x2="-5.95" y2="-29.75" stroke-width="2.8"/>
        <line x1="0" y1="-23.8" x2="5.95" y2="-29.75" stroke-width="2.8"/>
      </g>
      <g transform="rotate(180)">
        <line x1="0" y1="0" x2="0" y2="-35" stroke-width="3.5"/>
        <line x1="0" y1="-13.3" x2="-7.35" y2="-20.65" stroke-width="2.8"/>
        <line x1="0" y1="-13.3" x2="7.35" y2="-20.65" stroke-width="2.8"/>
        <line x1="0" y1="-23.8" x2="-5.95" y2="-29.75" stroke-width="2.8"/>
        <line x1="0" y1="-23.8" x2="5.95" y2="-29.75" stroke-width="2.8"/>
      </g>
      <g transform="rotate(240)">
        <line x1="0" y1="0" x2="0" y2="-35" stroke-width="3.5"/>
        <line x1="0" y1="-13.3" x2="-7.35" y2="-20.65" stroke-width="2.8"/>
        <line x1="0" y1="-13.3" x2="7.35" y2="-20.65" stroke-width="2.8"/>
        <line x1="0" y1="-23.8" x2="-5.95" y2="-29.75" stroke-width="2.8"/>
        <line x1="0" y1="-23.8" x2="5.95" y2="-29.75" stroke-width="2.8"/>
      </g>
      <g transform="rotate(300)">
        <line x1="0" y1="0" x2="0" y2="-35" stroke-width="3.5"/>
        <line x1="0" y1="-13.3" x2="-7.35" y2="-20.65" stroke-width="2.8"/>
        <line x1="0" y1="-13.3" x2="7.35" y2="-20.65" stroke-width="2.8"/>
        <line x1="0" y1="-23.8" x2="-5.95" y2="-29.75" stroke-width="2.8"/>
        <line x1="0" y1="-23.8" x2="5.95" y2="-29.75" stroke-width="2.8"/>
      </g>
      <circle cx="0" cy="0" r="3.85" fill="rgba(255,255,255,0.96)" stroke="none"/>
    </g>
    <!-- Sun at (135,90), sr=21, rays from r=27 to r=37 -->
    <g transform="translate(135,90)">
      <g stroke="rgba(255,255,255,0.88)" stroke-width="3" stroke-linecap="round">
        <line x1="0" y1="-27" x2="0" y2="-37"/>
        <line x1="19.09" y1="-19.09" x2="26.16" y2="-26.16"/>
        <line x1="27" y1="0" x2="37" y2="0"/>
        <line x1="19.09" y1="19.09" x2="26.16" y2="26.16"/>
        <line x1="0" y1="27" x2="0" y2="37"/>
        <line x1="-19.09" y1="19.09" x2="-26.16" y2="26.16"/>
        <line x1="-27" y1="0" x2="-37" y2="0"/>
        <line x1="-19.09" y1="-19.09" x2="-26.16" y2="-26.16"/>
      </g>
      <circle cx="0" cy="0" r="21" fill="rgba(255,255,255,0.95)"/>
      <circle cx="0" cy="0" r="16" fill="#ffc020"/>
    </g>
  </g>
</svg>
